<!-- icon666.com - MILLIONS vector ICONS FREE -->
<svg width="100px" height="70px" id="Layer_1" enable-background="new 0 0 468 468" viewBox="0 0 468 468" xmlns="http://www.w3.org/2000/svg">
	<g>
		<g>
			<g>
				<g>
					<path d="m358.704 77.498-26.286-58.894c-3.422-7.667-11.032-12.604-19.427-12.604h-84.9c-8.395 0-16.005 4.937-19.427 12.604l-26.286 58.894h-139.474c-17.624 0-31.912 14.29-31.912 31.917v254.868c0 17.627 14.287 31.917 31.912 31.917h370.176c17.624 0 31.912-14.29 31.912-31.917v-254.868c0-17.627-14.287-31.917-31.912-31.917z" fill="#fbab68">
					</path>
				</g>
				<g>
					<path d="m50.992 153.475h394v-44.059c0-17.627-14.29-31.917-31.917-31.917h-54.371l-26.287-58.895c-3.421-7.667-11.031-12.604-19.426-12.604h-84.901c-8.395 0-16.004 4.937-19.426 12.603l-26.287 58.895h-139.473c-17.624 0-31.912 14.287-31.912 31.912v254.873c0 13.414 8.278 24.888 20 29.61v-220.418c0-11.046 8.954-20 20-20z" fill="#ea8e49">
					</path>
				</g>
			</g>
			<g>
				<g>
					<g>
						<ellipse cx="227.992" cy="319.437" fill="#e0e0e0" rx="143.203" ry="142.563">
						</ellipse>
					</g>
					<g>
						<path d="m106.789 319.437c0-75.051 58.254-136.556 132.203-142.149-3.631-.275-7.299-.415-11-.415-79.089 0-143.203 63.828-143.203 142.563s64.114 142.564 143.203 142.564c3.701 0 7.369-.14 11-.415-73.949-5.592-132.203-67.097-132.203-142.148z" fill="#c9c9c9">
						</path>
					</g>
				</g>
				<g>
					<g>
						<ellipse cx="227.992" cy="319.437" fill="#5c6bc0" rx="96.929" ry="98.665">
						</ellipse>
					</g>
					<g>
						<path d="m151.064 319.437c0-51.054 38.095-93.051 86.929-98.146-3.288-.343-6.623-.52-10-.52-53.532 0-96.929 44.174-96.929 98.665s43.396 98.665 96.929 98.665c3.377 0 6.712-.177 10-.52-48.834-5.093-86.929-47.09-86.929-98.144z" fill="#5060a3">
						</path>
					</g>
					<g>
						<path d="m227.992 424.102c-56.755 0-102.929-46.953-102.929-104.665 0-57.713 46.174-104.666 102.929-104.666s102.929 46.953 102.929 104.666c0 57.712-46.174 104.665-102.929 104.665zm0-197.331c-50.138 0-90.929 41.569-90.929 92.666 0 51.096 40.791 92.665 90.929 92.665s90.929-41.569 90.929-92.665-40.791-92.666-90.929-92.666z" fill="#333" style="fill: rgb(247, 247, 247);">
						</path>
					</g>
				</g>
				<g>
					<g>
						<path d="m227.992 371.568c-28.74 0-52.123-23.386-52.123-52.132 0-28.745 23.382-52.131 52.123-52.131s52.123 23.386 52.123 52.131c0 28.746-23.382 52.132-52.123 52.132z" fill="#eee">
						</path>
					</g>
					<g>
						<path d="m197.87 319.437c0-24.97 17.648-45.887 41.123-50.952-3.548-.766-7.226-1.179-11-1.179-28.74 0-52.123 23.386-52.123 52.131s23.382 52.131 52.123 52.131c3.774 0 7.452-.413 11-1.179-23.475-5.065-41.123-25.981-41.123-50.952z" fill="#e0e0e0">
						</path>
					</g>
					<g>
						<path d="m227.992 377.568c-32.049 0-58.123-26.078-58.123-58.132 0-32.053 26.074-58.131 58.123-58.131s58.123 26.078 58.123 58.131c0 32.055-26.074 58.132-58.123 58.132zm0-104.262c-25.432 0-46.123 20.694-46.123 46.131s20.69 46.132 46.123 46.132 46.123-20.695 46.123-46.132-20.691-46.131-46.123-46.131z" fill="#333" style="fill: rgb(247, 247, 247);">
						</path>
					</g>
				</g>
				<g>
					<circle cx="227.992" cy="319.437" fill="#5c6bc0" r="20">
					</circle>
				</g>
				<g>
					<circle cx="221.122" cy="312.343" fill="#fff" r="9.558">
					</circle>
				</g>
			</g>
			<g>
				<g>
					<path d="m444.992 109.415c0-17.627-14.287-31.917-31.912-31.917h-54.376l-26.286-58.894c-3.422-7.667-11.032-12.604-19.427-12.604h-84.901c-8.395 0-16.005 4.937-19.427 12.604l-26.286 58.894h-139.473c-17.624 0-31.912 14.29-31.912 31.917v25.534h434z" fill="#e0e0e0">
					</path>
				</g>
				<g>
					<path d="m50.992 97.498h151.386l40.839-91.498h-15.124c-8.396 0-16.007 4.938-19.429 12.604l-26.286 58.894h-139.474c-17.624 0-31.912 14.287-31.912 31.912v25.539h20v-17.451c0-11.046 8.954-20 20-20z" fill="#c9c9c9">
					</path>
				</g>
			</g>
			<g>
				<g>
					<path d="m135.34 77.498h-73.019v-34.197c0-5.523 4.477-10 10-10h53.018c5.523 0 10 4.477 10 10v34.197z" fill="#fbab68">
					</path>
				</g>
				<g>
					<path d="m92.321 50.301h43.018v-7c0-5.523-4.477-10-10-10h-53.018c-5.523 0-10 4.477-10 10v34.197h18v-15.197c0-6.628 5.373-12 12-12z" fill="#ea8e49">
					</path>
				</g>
			</g>
			<g>
				<path d="m68.632 177.554h-22.627c-3.313 0-6-2.687-6-6s2.687-6 6-6h22.627c3.313 0 6 2.687 6 6s-2.687 6-6 6z" fill="#333" style="fill: rgb(247, 247, 247);">
				</path>
			</g>
			<g>
				<path d="m409.024 177.554h-22.627c-3.313 0-6-2.687-6-6s2.687-6 6-6h22.627c3.313 0 6 2.687 6 6s-2.687 6-6 6z" fill="#333" style="fill: rgb(247, 247, 247);">
				</path>
			</g>
		</g>
		<g>
			<g>
				<path d="m416.992 12h-42.875c-3.313 0-6-2.687-6-6s2.687-6 6-6h42.875c3.313 0 6 2.687 6 6s-2.686 6-6 6z" fill="#333" style="fill: rgb(247, 247, 247);">
				</path>
			</g>
			<g>
				<path d="m456.992 52h-38.875c-3.313 0-6-2.687-6-6s2.687-6 6-6h38.875c3.313 0 6 2.687 6 6s-2.686 6-6 6z" fill="#333" style="fill: rgb(247, 247, 247);">
				</path>
			</g>
		</g>
		<g>
			<path d="m381.215 258.912c-.298 6.155 2.825 10.99 6.977 10.8 4.151-.19 7.759-5.333 8.057-11.488s-2.825-10.99-6.977-10.8c-4.151.19-7.759 5.333-8.057 11.488z" fill="#fff">
			</path>
		</g>
		<g>
			<ellipse cx="412.609" cy="208.85" fill="#fff" rx="10.875" ry="17.024">
			</ellipse>
		</g>
		<path d="m413.983 71.498h-50.607l-24.756-55.344c-4.39-9.813-14.182-16.154-24.947-16.154h-85.088c-10.765 0-20.557 6.341-24.946 16.154l-24.756 55.344h-37.253v-28.197c0-8.822-7.178-16-16-16h-53.18c-8.822 0-16 7.178-16 16v28.197h-13.46c-20.943 0-37.982 17.009-37.982 37.917v254.868c0 20.908 17.039 37.917 37.982 37.917h61.387c26.876 39.659 72.477 65.8 124.11 65.8 51.632 0 97.234-26.141 124.109-65.8h61.387c20.943 0 37.982-17.009 37.982-37.917v-254.868c.001-20.908-17.038-37.917-37.982-37.917zm-345.533-28.197c0-2.206 1.794-4 4-4h53.18c2.206 0 4 1.794 4 4v28.197h-61.18zm-51.442 66.114c0-14.291 11.655-25.917 25.982-25.917h139.782c2.366 0 4.511-1.39 5.477-3.55l26.344-58.894c2.46-5.5 7.953-9.054 13.992-9.054h85.088c6.04 0 11.532 3.554 13.993 9.055l26.344 58.894c.966 2.16 3.111 3.55 5.477 3.55h54.496c14.327 0 25.982 11.626 25.982 25.917v19.534h-422.957zm211.479 346.585c-75.829 0-137.52-61.262-137.52-136.563s61.691-136.563 137.52-136.563c75.828 0 137.519 61.262 137.519 136.563s-61.691 136.563-137.519 136.563zm185.496-65.8h-53.999c11.732-21.482 18.021-46.177 18.021-70.763 0-81.918-67.074-148.563-149.519-148.563s-149.52 66.645-149.52 148.563c0 24.585 6.29 49.281 18.021 70.763h-53.997c-14.327 0-25.982-11.626-25.982-25.917v-223.334h422.958v223.334c0 14.291-11.656 25.917-25.983 25.917z" fill="#333" style="fill: rgb(247, 247, 247);">
		</path>
	</g>
</svg>
