<svg enable-background="new 0 0 32 32" viewBox="0 0 32 32" xmlns="http://www.w3.org/2000/svg"><g id="Layer_1"><g><g><path d="m16 31c-8.271 0-15-6.729-15-15s6.729-15 15-15 15 6.729 15 15-6.729 15-15 15zm0-28c-7.1685 0-13 5.8315-13 13s5.8315 13 13 13 13-5.8315 13-13-5.8315-13-13-13z" fill="rgb(0,0,0)"></path></g><g><path d="m13.793 21.707c-.3879-.3879-.3879-1.0262 0-1.4141l4.2929-4.2929-4.293-4.293c-.3879-.3879-.3879-1.0262 0-1.4141s1.0262-.3879 1.4141 0l5 5c.3906.3906.3906 1.0234 0 1.4141l-5 5c-.3878.3879-1.0262.3879-1.414 0z" fill="rgb(0,0,0)"></path></g></g></g></svg>